<svg width="28" height="28" viewBox="0 0 28 28" fill="none" xmlns="http://www.w3.org/2000/svg">
<path d="M7 0H21C22.8565 0 24.637 0.737498 25.9497 2.05025C27.2625 3.36301 28 5.14348 28 7V21C28 22.8565 27.2625 24.637 25.9497 25.9497C24.637 27.2625 22.8565 28 21 28H7C5.14348 28 3.36301 27.2625 2.05025 25.9497C0.737498 24.637 0 22.8565 0 21L0 7C0 5.14348 0.737498 3.36301 2.05025 2.05025C3.36301 0.737498 5.14348 0 7 0Z" fill="#1CAE81"/>
<path d="M7.3442 14.8756C7.35413 14.6133 7.43758 14.3591 7.58505 14.142C7.73251 13.9249 7.93805 13.7536 8.1782 13.6476C8.43127 13.5127 8.72074 13.4619 9.00465 13.5025C9.28856 13.5431 9.55214 13.6731 9.7572 13.8736C10.1089 14.2209 10.4376 14.5907 10.7412 14.9806C11.1945 15.4986 11.6425 16.022 12.0852 16.5506C12.1632 16.6436 12.1952 16.6136 12.2562 16.5396C12.9389 15.713 13.6232 14.888 14.3092 14.0646C15.4225 12.7206 16.5355 11.378 17.6482 10.0366C18.2572 9.30164 18.8622 8.56162 19.4732 7.82662C19.671 7.55582 19.9424 7.34759 20.2552 7.22664C20.3345 7.18932 20.4223 7.1738 20.5095 7.18169C20.5968 7.18958 20.6804 7.22057 20.7517 7.2715C20.823 7.32243 20.8795 7.39146 20.9152 7.47145C20.951 7.55145 20.9648 7.63954 20.9552 7.72664C20.9533 8.05149 20.8537 8.36825 20.6692 8.63564C19.6899 10.169 18.7082 11.698 17.7242 13.2226L13.6332 19.5886C13.5 19.8277 13.3201 20.0375 13.1042 20.2056C12.8094 20.4116 12.4488 20.5014 12.0918 20.4576C11.7348 20.4139 11.4066 20.2397 11.1702 19.9686C10.2702 18.9316 9.38421 17.8856 8.49121 16.8436C8.25054 16.561 8.00853 16.28 7.76519 16.0006C7.48517 15.6939 7.33436 15.2909 7.3442 14.8756Z" fill="white"/>
</svg>
